<?xml version="1.0" standalone="no"?><!DOCTYPE svg PUBLIC "-//W3C//DTD SVG 1.1//EN" "http://www.w3.org/Graphics/SVG/1.1/DTD/svg11.dtd"><svg t="1754732708308" class="icon" viewBox="0 0 1024 1024" version="1.1" xmlns="http://www.w3.org/2000/svg" p-id="1486" xmlns:xlink="http://www.w3.org/1999/xlink" width="200" height="200"><path d="M144 176v656a128 128 0 0 0 128 128h544a64 64 0 0 0 64-64V128a64 64 0 0 0-64-64H256a112 112 0 0 0-112 112z m136 576H816v144H280a72 72 0 1 1 0-144z m395.872-304.992L608 379.12l-67.888 67.888a32 32 0 1 1-45.248-45.264l67.872-67.872-67.872-67.888a32 32 0 0 1 45.248-45.248L608 288.608l67.872-67.872a32 32 0 0 1 45.264 45.248l-67.888 67.888 67.888 67.872a32 32 0 1 1-45.248 45.264z" fill="#2c2c2c" p-id="1487"></path></svg>